<?xml version="1.0" encoding="utf-8"?>
<!-- Generator: Adobe Illustrator 23.1.1, SVG Export Plug-In . SVG Version: 6.00 Build 0)  -->
<svg version="1.1" id="Livello_1" xmlns="http://www.w3.org/2000/svg" xmlns:xlink="http://www.w3.org/1999/xlink" x="0px" y="0px"
	 viewBox="0 0 18.2070007 14.4290009" style="enable-background:new 0 0 18.2070007 14.4290009;" xml:space="preserve">
<style type="text/css">
	.st0{fill:#009641;}
	.st1{fill:#E62644;}
	.st2{fill:#0079C2;}
	.st3{fill:#FAB31E;}
	.st4{fill:#00489A;}
	.st5{fill:#FFFFFF;}
	.st6{fill:#009E48;}
	.st7{fill:#E62A30;}
	.st8{fill:#D1BE84;}
</style>
<g>
	<path class="st0" d="M5.369,1.369c0.0359998,0,0.072,0.0019999,0.1059999,0.006
		C5.5510001,1.3829999,5.625,1.4000001,5.6949997,1.4200001c0.3720002,0.1209998,0.652,0.4449997,0.7130003,0.842
		C6.4780002,2.2849998,6.552,2.302,6.6279998,2.3070002c-0.0469999-0.5380001-0.4320002-0.98-0.9419999-1.1110001
		c-0.0680003-0.0170002-0.138-0.0280004-0.21-0.0360003C5.4419999,1.158,5.4059997,1.1559997,5.3719997,1.1559997
		c-0.0380001,0-0.0760002,0.0019999-0.1139998,0.006c0.0040002,0.0339999,0.0040002,0.0679998,0.0040002,0.1020002
		c0,0.0380001-0.0019999,0.0739999-0.006,0.1100001C5.2919998,1.3709998,5.3299999,1.369,5.369,1.369"/>
	<path class="st1" d="M6.7319999,0C6.0689998,0,5.5249996,0.5120001,5.473,1.164c0.072,0.006,0.1420002,0.0170002,0.21,0.0339999
		C5.717,0.648,6.1719999,0.21,6.7309999,0.21c0.5799999,0,1.052,0.47,1.052,1.052c0,0.5799999-0.4720001,1.052-1.052,1.052
		c-0.0359998,0-0.072-0.0019999-0.1059999-0.006C6.5489998,2.3000002,6.4749999,2.2850003,6.4050002,2.2610002
		C6.033,2.1399999,5.7519999,1.816,5.6929998,1.4200001c-0.0700002-0.0229998-0.1440001-0.04-0.2199998-0.0469999
		C5.52,1.9110003,5.9050002,2.3530002,6.415,2.4840002c0.0679998,0.0170002,0.138,0.0279999,0.21,0.0339999
		c0.0339999,0.0040002,0.0700002,0.0040002,0.1059999,0.0040002c0.698,0,1.2620001-0.5650001,1.2620001-1.2620001
		C7.9959993,0.5649998,7.4320002,0,6.7319999,0"/>
	<path class="st2" d="M2.5209999,1.1679997C2.4709997,0.5139999,1.9269999,0,1.262,0C0.564,0,0,0.5650001,0,1.2620001
		s0.5649999,1.2620001,1.262,1.2620001c0.0380001,0,0.076-0.0019999,0.112-0.0040002
		C1.3719999,2.4889998,1.37,2.4569998,1.37,2.4249997c0-0.04,0.0020001-0.0780001,0.006-0.118
		C1.3399998,2.3109999,1.3019999,2.3150001,1.262,2.3150001c-0.5799999,0-1.052-0.4699998-1.052-1.052s0.472-1.052,1.052-1.052
		c0.5610001,0,1.0179998,0.4400001,1.0499998,0.993c0,0.0190001,0.0020003,0.04,0.0020003,0.059
		c0,0.0570002-0.006,0.112-0.0150003,0.165C2.2360001,1.8179998,1.9609998,2.1370001,1.594,2.2599998
		c-0.0080001,0.0550003-0.0140002,0.1100001-0.0140002,0.165c0,0.0209999,0.0020001,0.04,0.0039999,0.059
		c0.5040001-0.1329999,0.887-0.5710001,0.9339999-1.105c0.0040002-0.0389996,0.006-0.0779996,0.006-0.1159997
		C2.5239997,1.2309999,2.5239997,1.198,2.5209999,1.1679997"/>
	<path class="st3" d="M2.632,1.3730001c0.0359998,0,0.072,0.0019999,0.1059999,0.006
		C2.8139997,1.3870001,2.888,1.402,2.9579997,1.4260001c0.3730001,0.1209998,0.652,0.4439998,0.7129998,0.842
		c0.0700002,0.0229998,0.1440001,0.0380001,0.2199998,0.0450001c-0.0469999-0.5380001-0.4320002-0.98-0.9419999-1.1110001
		c-0.0679998-0.0170002-0.138-0.0279999-0.21-0.0339999c-0.0339999-0.0019999-0.0699997-0.006-0.1040001-0.006
		c-0.0380001,0-0.0739999,0.0019999-0.112,0.006C2.5239997,1.1999998,2.526,1.2309999,2.526,1.2649999
		c0,0.04-0.0020003,0.0780001-0.006,0.1160002C2.5569997,1.375,2.5939999,1.3730001,2.632,1.3730001"/>
	<path class="st3" d="M3.6809998,2.4889998C3.6459999,3.0409999,3.1919999,3.4769998,2.632,3.4769998
		c-0.5610003,0-1.018-0.4400001-1.0480002-0.993c-0.0019999-0.02-0.0039999-0.039-0.0039999-0.059
		c0-0.0570002,0.006-0.112,0.0150001-0.165c0.063-0.3899999,0.3369999-0.7090001,0.7049998-0.8320003
		C2.3080001,1.375,2.3140001,1.3199997,2.3140001,1.263c0-0.0209999-0.0020003-0.04-0.0040002-0.059
		C1.8059999,1.3369999,1.423,1.7739997,1.374,2.3070002C1.3719999,2.3470001,1.37,2.3850002,1.37,2.4250002
		C1.37,2.4570003,1.3720001,2.4890003,1.374,2.5220003c0.049,0.6509995,0.5929999,1.1669998,1.258,1.1669998
		c0.6629996,0,1.2069998-0.5139999,1.2589998-1.164C3.8189998,2.5169997,3.7489996,2.506,3.6809998,2.4889998"/>
	<path d="M3.9969997,2.3179998c-0.0359998,0-0.072-0.0019999-0.1059999-0.006C3.8149996,2.3039999,3.7409997,2.289,3.671,2.2669997
		C3.2979999,2.1459999,3.0190001,1.822,2.9579997,1.4260001C2.888,1.4030004,2.8139997,1.3860002,2.7399998,1.381
		c0.0469999,0.5380001,0.4320002,0.98,0.9419999,1.1110001c0.0679998,0.0170002,0.138,0.0279999,0.21,0.0339999
		c0.0339999,0.0040002,0.0700002,0.0040002,0.1059999,0.0040002c0.0380001,0,0.0760002-0.0019999,0.1139998-0.0040002
		C4.1109996,2.4909997,4.1089997,2.4569998,4.1089997,2.4229999c0-0.0380001,0.0019999-0.0739999,0.006-0.1100001
		C4.073,2.3150001,4.0349998,2.3179998,3.9969997,2.3179998"/>
	<path d="M5.2559996,1.164c-0.053-0.6500001-0.5950003-1.1599998-1.2589998-1.1599998S2.79,0.516,2.7389998,1.1679997
		c0.072,0.006,0.1420002,0.0170002,0.21,0.0339999C2.9829998,0.651,3.4379997,0.2149999,3.9969997,0.2149999
		S5.0109997,0.651,5.0449996,1.2030001c0.0020003,0.02,0.0040002,0.0429997,0.0040002,0.0650001
		c0,0.053-0.006,0.1059999-0.013,0.1570001c-0.059,0.3949995-0.336,0.7149997-0.7049999,0.8389997
		C4.323,2.3150001,4.3169999,2.368,4.3169999,2.4229999c0,0.0229998,0.0019999,0.0440001,0.0019999,0.0640001
		c0.506-0.1350002,0.8889999-0.5739999,0.934-1.1110001c0.0040002-0.0359998,0.006-0.0739999,0.006-0.1100001
		C5.2589998,1.2309999,5.2579999,1.198,5.2559996,1.164"/>
	<path class="st0" d="M6.4179997,2.4850001C6.3839998,3.0350003,5.9289999,3.473,5.3699999,3.473
		S4.3529997,3.0369997,4.3209996,2.4850001C4.3189998,2.4639997,4.3169999,2.4419999,4.3169999,2.421
		c0-0.0549998,0.006-0.1059999,0.013-0.1589999c0.059-0.3940001,0.335-0.7150002,0.7049999-0.8379998
		c0.0079999-0.0510001,0.0139999-0.1040006,0.0139999-0.1590004c0-0.0229998-0.0019999-0.0440001-0.0040002-0.066
		C4.5389996,1.3329997,4.158,1.7729998,4.1109996,2.309c-0.0039997,0.0359998-0.006,0.072-0.006,0.1100001
		c0,0.0339999,0.0019999,0.0679998,0.0040002,0.1019998c0.0510001,0.6479998,0.5949998,1.1599998,1.2589998,1.1599998
		s1.2070003-0.5109997,1.2580004-1.164C6.5559998,2.5159998,6.4859996,2.5019999,6.4179997,2.4850001"/>
	<path class="st4" d="M10.1890001,7.1590004c-0.1719999,0-0.3339996-0.0319996-0.4799995-0.0950003
		C9.5630007,7.0010004,9.4360008,6.9140005,9.328001,6.8059998C9.2209997,6.6969995,9.1370001,6.5679998,9.0749998,6.4200001
		C9.0139999,6.2720003,8.9840002,6.1129999,8.9840002,5.9440002v-0.007c0-0.1689997,0.0299997-0.3260002,0.0909996-0.474
		s0.1440001-0.2770004,0.2519999-0.3870001c0.1079998-0.1120005,0.2370005-0.1990004,0.3850002-0.263
		c0.1479998-0.0640001,0.3129997-0.0970001,0.493-0.0970001c0.1079998,0,0.2069998,0.0089998,0.2960005,0.027
		c0.0889997,0.0190001,0.1709995,0.0440001,0.2449999,0.0760002c0.0740004,0.0319996,0.1420002,0.0719995,0.2049999,0.1160002
		c0.0629997,0.0450001,0.1230001,0.0950003,0.1780005,0.1479998l-0.2650003,0.3070002
		C10.7679996,5.302,10.6669998,5.2299995,10.5629997,5.177c-0.1059999-0.0550003-0.2259998-0.0819998-0.3599997-0.0819998
		c-0.1120005,0-0.2159996,0.0229998-0.3129997,0.066S9.7119999,5.2650003,9.6420002,5.3390007
		C9.5720005,5.4150009,9.5190001,5.5020008,9.4809999,5.604001C9.4429998,5.7040014,9.4239998,5.8120012,9.4239998,5.9280014
		V5.934001c0,0.1160002,0.0190001,0.224,0.0570002,0.3260002s0.0930004,0.191,0.1610003,0.2690001
		c0.0699997,0.0760002,0.1520004,0.1359997,0.2480001,0.1800003c0.0950003,0.0439997,0.1990004,0.066,0.3129997,0.066
		c0.1440001,0,0.2670002-0.0270004,0.3719997-0.0819998c0.1040001-0.0550003,0.2049999-0.1289997,0.3070002-0.224
		l0.2670002,0.2690001c-0.0609999,0.0640001-0.125,0.1230001-0.191,0.1739998s-0.1379995,0.0950003-0.2139997,0.1309996
		c-0.0760002,0.0380001-0.1610003,0.066-0.2519999,0.085C10.3999996,7.1499996,10.2989998,7.1590004,10.1890001,7.1590004"/>
	<path class="st4" d="M12.8280001,7.1610003c-0.1820002,0-0.349-0.0319996-0.4980001-0.0970001
		C12.1800003,7,12.0489998,6.9119997,11.941,6.802S11.75,6.5629997,11.6890001,6.415s-0.0909996-0.3030005-0.0909996-0.4700003
		V5.9390001c0-0.1669998,0.0299997-0.3240004,0.0909996-0.4700003S11.835,5.1919994,11.9449997,5.0799999
		C12.0549994,4.9679995,12.1859999,4.8809996,12.335,4.8150001c0.1520004-0.0640001,0.3170004-0.099,0.5-0.099
		c0.1820002,0,0.349,0.0320001,0.4980001,0.0970001c0.1499996,0.0639997,0.2810001,0.152,0.3889999,0.2619996
		s0.191,0.2390003,0.2519999,0.3870001s0.0909996,0.3030005,0.0909996,0.4700003v0.0080004
		c0,0.1669998-0.0299997,0.3240004-0.0909996,0.4700003c-0.0609999,0.1479998-0.1459999,0.2770004-0.2559996,0.3889999
		c-0.1099997,0.1120005-0.2410002,0.1990004-0.3920002,0.2650003C13.177,7.1269999,13.0100002,7.1610003,12.8280001,7.1610003
		 M12.835,6.7779999c0.1160002,0,0.224-0.0209999,0.3199997-0.066c0.0970001-0.0439997,0.1800003-0.1040001,0.25-0.1780005
		c0.0699997-0.0760002,0.1230001-0.1630001,0.1630001-0.2650003c0.04-0.1000004,0.059-0.2080002,0.059-0.3240004V5.9370003
		c0-0.1140003-0.0190001-0.224-0.059-0.3260002s-0.0950003-0.191-0.165-0.2670002s-0.1549997-0.1359997-0.2539997-0.1800003
		c-0.099-0.0450001-0.2069998-0.0679998-0.3219995-0.0679998c-0.1160002,0-0.224,0.0229998-0.3199997,0.066
		c-0.0970001,0.0439997-0.1800003,0.1040001-0.25,0.1780005c-0.0699997,0.0760002-0.1230001,0.1630001-0.1630001,0.2650003
		c-0.04,0.1000004-0.059,0.2080002-0.059,0.3240004v0.0080004c0,0.1160002,0.0190001,0.224,0.059,0.3260002
		c0.0380001,0.1020002,0.0950003,0.191,0.165,0.2670002s0.1549997,0.1359997,0.2539997,0.1800003
		C12.6119995,6.7559996,12.7179995,6.7779999,12.835,6.7779999"/>
	<polygon class="st4" points="14.7989998,4.7579999 15.184,4.7579999 16.4460011,6.3920002 16.4460011,4.7579999 
		16.8570004,4.7579999 16.8570004,7.1199999 16.5110016,7.1199999 15.21,5.4399996 15.21,7.1199999 14.7989998,7.1199999 	"/>
	<rect x="17.7960014" y="4.7579999" class="st4" width="0.4109993" height="2.362"/>
	<polygon class="st5" points="2.6209998,7.0649996 2.6209998,13.3250008 3.9899998,14.2350006 5.3669996,13.3250008 
		5.3669996,7.0649996 	"/>
	<path class="st6" d="M0.5059999,7.0649996v2.9969997c0,1.4800005,0.8510001,2.3450003,1.27,2.691
		C1.916,12.8669987,2.0029998,12.9159985,2.007,12.9200001l0.7639999,0.5079994V7.0649996H0.5059999z"/>
	<path class="st7" d="M5.2179999,13.4260006l0.7730002-0.5100002c0,0,0.0890002-0.0470009,0.2270002-0.1630001
		c0.1399999-0.1160002,0.3260002-0.2810001,0.5120001-0.5159998c0.3730001-0.4720001,0.7559996-1.1750002,0.7559996-2.165V7.0640011
		H5.2179999V13.4260006z"/>
	<rect x="0.5079999" y="4.7469997" class="st4" width="6.9809995" height="2.3520002"/>
	<rect x="5.244" y="5.3590002" class="st8" width="0.2069998" height="1.1809998"/>
	<rect x="1.249" y="5.3590002" class="st8" width="0.207" height="1.1809998"/>
	<polygon class="st8" points="2.1359997,5.5500002 1.7599999,5.5500002 1.7599999,5.3590002 2.7199998,5.3590002 
		2.7199998,5.5500002 2.3439999,5.5500002 2.3439999,6.54 2.1359997,6.54 	"/>
	<path class="st8" d="M3.277,5.349h0.191L3.987,6.5389996H3.7670002L3.6479998,6.2530003h-0.559L2.9679999,6.54H2.756L3.277,5.349z
		 M3.5739999,6.0690002l-0.204-0.4710007L3.1669998,6.0690002H3.5739999z"/>
	<polygon class="st8" points="4.2359996,5.3590002 4.4429998,5.3590002 4.4429998,6.3520002 5.0039997,6.3520002 5.0039997,6.54 
		4.2359996,6.54 	"/>
	<path class="st8" d="M6.2549996,5.349h0.1929998L6.967,6.54H6.7469997l-0.119-0.2869997h-0.559L5.9469995,6.54H5.7349997
		L6.2549996,5.349z M6.5519996,6.0690002L6.3469996,5.5979996L6.145,6.0690002H6.5519996z"/>
	<path class="st8" d="M3.9249997,14.4279995l-2.0089998-1.3419991c-0.0109999-0.0060005-1.5829999-0.934-1.585-3.0039997v-5.5
		h7.3259997v5.4969997c-0.0019999,2.0720005-1.5679998,3-1.573,3.0039997l-2.0209999,1.3460007
		C4.0629997,14.4279995,3.9249997,14.4279995,3.9249997,14.4279995z M3.9989996,14.1989994l1.9709997-1.3059998
		c0,0,0.0869999-0.0470009,0.2259998-0.1610003c0.138-0.1140003,0.322-0.2770004,0.5079999-0.5100002
		c0.3699999-0.4680004,0.7490001-1.1640005,0.7490001-2.1440001V4.79H0.5419999v5.2769995
		c0,1.467,0.8429999,2.3220005,1.2589998,2.665c0.138,0.1139994,0.2260002,0.1610003,0.229,0.165l1.96,1.3040009h0.0089998
		V14.1989994z"/>
</g>
</svg>
